<svg width="663" height="249" viewBox="0 0 663 249" fill="none" xmlns="http://www.w3.org/2000/svg">
<path d="M234.189 184.451C228.443 184.451 223.802 182.904 220.266 179.81C216.84 176.605 215.128 172.572 215.128 167.71C215.128 162.848 216.84 158.815 220.266 155.61C223.802 152.406 228.443 150.804 234.189 150.804C239.824 150.804 244.355 152.406 247.78 155.61C251.316 158.815 253.084 162.848 253.084 167.71C253.084 172.462 251.316 176.44 247.78 179.644C244.355 182.849 239.824 184.451 234.189 184.451ZM262.993 136.549C262.993 126.936 264.706 118.538 268.131 111.355C271.667 104.173 276.474 98.6477 282.552 94.7802C288.629 90.9127 295.37 88.979 302.773 88.979C308.74 88.979 314.044 90.2497 318.685 92.7912C323.437 95.2222 327.138 98.5925 329.79 102.902V60.47H362.443V183.125H329.79V170.196C327.249 174.506 323.658 177.931 319.017 180.473C314.376 183.014 308.906 184.285 302.607 184.285C295.204 184.285 288.463 182.351 282.386 178.484C276.419 174.616 271.667 169.091 268.131 161.909C264.706 154.616 262.993 146.163 262.993 136.549ZM329.956 136.549C329.956 130.582 328.299 125.886 324.984 122.46C321.779 119.035 317.801 117.322 313.05 117.322C308.188 117.322 304.154 119.035 300.95 122.46C297.745 125.775 296.143 130.472 296.143 136.549C296.143 142.516 297.745 147.268 300.95 150.804C304.154 154.229 308.188 155.942 313.05 155.942C317.801 155.942 321.779 154.229 324.984 150.804C328.299 147.378 329.956 142.627 329.956 136.549ZM424.216 184.285C414.934 184.285 406.591 182.351 399.188 178.484C391.895 174.616 386.149 169.091 381.95 161.909C377.751 154.726 375.651 146.273 375.651 136.549C375.651 126.936 377.751 118.538 381.95 111.355C386.259 104.173 392.061 98.6477 399.354 94.7802C406.757 90.9127 415.1 88.979 424.382 88.979C433.664 88.979 441.951 90.9127 449.244 94.7802C456.648 98.6477 462.449 104.173 466.648 111.355C470.958 118.538 473.112 126.936 473.112 136.549C473.112 146.163 470.958 154.616 466.648 161.909C462.449 169.091 456.648 174.616 449.244 178.484C441.841 182.351 433.498 184.285 424.216 184.285ZM424.216 156.108C428.747 156.108 432.504 154.45 435.487 151.135C438.581 147.71 440.128 142.848 440.128 136.549C440.128 130.251 438.581 125.444 435.487 122.129C432.504 118.814 428.802 117.156 424.382 117.156C419.962 117.156 416.26 118.814 413.277 122.129C410.293 125.444 408.801 130.251 408.801 136.549C408.801 142.958 410.238 147.82 413.111 151.135C415.984 154.45 419.686 156.108 424.216 156.108ZM518.817 106.548C522.463 101.244 526.883 97.0455 532.077 93.9515C537.27 90.8575 542.85 89.3105 548.817 89.3105V123.952H539.701C532.629 123.952 527.38 125.333 523.955 128.096C520.529 130.858 518.817 135.665 518.817 142.516V183.125H486.33V90.1392H518.817V106.548ZM660.577 90.1392L601.57 227.38H566.265L588.476 179.147L550.353 90.1392H586.487L606.045 142.848L624.941 90.1392H660.577Z" fill="#6283FA"/>
<path d="M72.927 110.936L72.927 186.076" stroke="#6283FA" stroke-width="35.36" stroke-linecap="round"/>
<path d="M113.814 187.181C146.964 187.181 175.694 171.711 175.694 123.091C175.694 110.936 174.589 66.7365 104.974 66.7365" stroke="#FAD261" stroke-width="35.36" stroke-linecap="round"/>
<path d="M106.077 150.717C123.757 155.137 139.227 145.275 139.227 125.347C139.227 120.918 139.227 99.887 106.077 104.307" stroke="#FAD261" stroke-width="17.68" stroke-linecap="round"/>
<path d="M44.1992 66.7365H101.659" stroke="#6283FA" stroke-width="35.36" stroke-linecap="round"/>
</svg>
